<?xml version="1.0" encoding="utf-8"?>
<svg version="1.1" xmlns="http://www.w3.org/2000/svg" width="2148.20198" height="2153.37405" viewBox="765.232 -47.078 556.47 783.06" xmlns:bx="https://boxy-svg.com">
  <defs>
    <radialGradient cx="1044.635" cy="242.865" r="775.14584" gradientUnits="userSpaceOnUse" id="color-1" spreadMethod="pad" gradientTransform="matrix(0.340095, 0, 0, 0.53565, 687.780195, 100.359071)">
      <stop offset="0" style="stop-color: rgb(255, 234, 139);"/>
      <stop offset="1" style="stop-color: rgb(198, 161, 0);"/>
    </radialGradient>
    <bx:export>
      <bx:file format="svg" href="#object-0" excluded="true"/>
    </bx:export>
  </defs>
  <g fill="none" fill-rule="nonzero" stroke="none" stroke-width="none" stroke-linecap="none" stroke-linejoin="none" stroke-miterlimit="10" stroke-dasharray="" stroke-dashoffset="0" font-family="none" font-weight="none" font-size="none" text-anchor="none" style="mix-blend-mode: normal">
    <path d="M 1043.215 732.025 C 1036.517 732.025 1030.346 728.394 1027.101 722.54 C 1010.445 692.525 984.83 651.801 955.174 604.65 C 872.314 472.9 769.189 308.936 769.189 230.769 C 769.189 79.743 892.116 -43.121 1043.21 -43.121 C 1194.278 -43.121 1317.179 79.743 1317.179 230.769 C 1317.179 312.847 1220.09 465.561 1134.429 600.295 C 1104.934 646.691 1077.075 690.514 1059.325 722.535 C 1056.08 728.389 1049.908 732.019 1043.215 732.025 L 1043.215 732.025 Z" id="CompoundPath 1" fill="url(#color-1)" stroke-linecap="butt" stroke-linejoin="miter" style="fill-rule: nonzero; paint-order: fill; stroke-width: 8px; stroke: rgb(181, 138, 0);">
      <title>MarkerShape</title>
    </path>
    <path d="M 1043.644 723.717 C 1033.612 723.495 1031.194 712.893 1028.054 707.255 C 1011.944 678.349 986.946 639.351 958.26 593.941 C 878.111 467.057 777.585 307.819 777.252 232.536 C 776.586 81.978 898.376 -34.569 1044.522 -34.569 C 1190.642 -34.569 1311.298 86.64 1309.3 232.98 C 1308.221 312.022 1215.39 459.101 1132.53 588.86 C 1104.01 633.541 1077.06 675.746 1059.89 706.584 C 1056.75 712.222 1052.454 723.912 1043.644 723.717 Z" id="path-1" stroke-linecap="butt" stroke-linejoin="miter" style="fill-rule: nonzero; paint-order: fill; stroke-width: 8px; stroke: rgba(244, 224, 141, 0.247);">
      <title>MarkerRim</title>
    </path>
    <ellipse style="stroke: rgb(0, 0, 0); fill: rgb(255, 255, 255); stroke-width: 0px;" cx="1043.91" cy="222.692" rx="168.658" ry="168.658" id="object-0"/>
    <ellipse style="fill: rgb(0, 0, 0);" cx="1078.35" cy="118.165" rx="22.911" ry="22.911">
      <title>Head</title>
    </ellipse>
    <path d="M 1137.09 185.545 C 1129.58 185.545 1122.09 185.545 1114.58 185.545 C 1114.434 185.545 1114.309 185.545 1114.163 185.545 C 1113.887 185.306 1113.622 185.071 1113.356 184.832 C 1111.486 183.113 1109.794 181.196 1108.304 179.087 C 1106.726 176.858 1105.101 174.717 1103.403 172.629 C 1102.481 171.483 1101.538 170.342 1100.575 169.238 C 1096.851 164.926 1093.283 160.457 1089.887 155.775 C 1089.471 155.196 1089.023 154.623 1088.57 154.082 C 1085.382 150.243 1081.382 147.202 1076.564 144.946 C 1076.221 144.785 1075.851 144.634 1075.491 144.493 C 1074.767 144.207 1074.023 143.952 1073.231 143.738 C 1072.835 143.639 1072.418 143.545 1072.007 143.457 C 1071.179 143.285 1070.33 143.144 1069.439 143.045 C 1068.554 142.941 1067.627 142.884 1066.674 142.858 C 1058.632 142.67 1050.554 142.592 1042.512 142.592 C 1034.471 142.592 1026.392 142.525 1018.351 142.42 C 1013.132 142.358 1008.236 142.634 1003.674 143.269 C 1002.002 143.499 1000.439 143.92 999.07 144.514 C 998.721 144.665 998.372 144.837 998.038 144.998 C 997.356 145.337 996.705 145.686 996.08 146.071 C 994.825 146.847 993.695 147.733 992.648 148.712 C 991.872 149.441 991.127 150.238 990.46 151.082 C 990.012 151.65 989.59 152.238 989.195 152.853 C 988.408 154.087 987.726 155.426 987.142 156.863 C 987.08 157.025 986.997 157.186 986.918 157.353 C 985.465 160.03 984.049 162.681 982.658 165.28 C 982.023 166.488 981.387 167.66 980.757 168.785 C 977.866 173.978 975.023 179.243 972.215 184.566 C 971.804 185.342 971.45 186.155 971.142 187.009 C 970.835 187.868 970.585 188.78 970.387 189.722 C 970.163 190.889 970.018 191.979 970.062 193.168 C 970.067 193.309 970.241 195.027 970.861 196.181 C 971.374 197.136 972.122 197.988 972.913 198.743 C 973.445 199.243 974.028 199.702 974.648 200.118 C 975.585 200.733 976.839 201.334 977.876 201.666 C 979.647 202.285 982.351 202.187 983.564 201.9 C 984.092 201.775 984.353 201.678 984.718 201.527 C 985.437 201.22 986.075 200.827 986.695 200.415 C 987.007 200.212 987.299 199.988 987.58 199.754 C 987.861 199.519 988.132 199.259 988.387 199.004 C 988.903 198.483 989.377 197.92 989.783 197.29 C 989.986 196.972 990.168 196.634 990.351 196.29 C 993.075 191.056 995.793 185.811 998.491 180.509 C 1000.726 176.134 1002.986 171.811 1005.262 167.535 C 1013.304 167.535 1021.377 167.535 1029.418 167.535 C 1029.564 167.535 1029.695 167.535 1029.835 167.535 C 1027.46 173.202 1025.137 178.941 1022.861 184.728 C 1020.59 190.519 1018.366 196.254 1016.137 201.978 C 1014.939 205.045 1013.674 208.025 1012.346 210.905 C 1011.903 211.863 1011.445 212.832 1010.991 213.769 C 1010.851 215.827 1010.71 217.874 1010.554 219.905 C 1010.142 225.327 1009.658 230.644 1009.142 235.879 C 1008.387 243.306 1007.689 250.665 1007.033 257.972 C 1006.543 263.29 1005.95 268.462 1005.257 273.499 C 1003.679 273.967 1001.773 274.191 999.523 274.15 C 991.476 273.983 983.408 273.905 975.366 273.905 C 968.674 273.905 961.997 274.03 955.325 274.295 C 955.012 274.295 954.606 274.337 954.075 274.394 C 952.273 274.582 950.674 275.051 949.299 275.811 C 944.122 278.587 940.58 283.113 938.7 289.389 C 938.21 290.962 937.71 292.519 937.2 294.051 C 936.648 295.712 935.991 297.16 935.236 298.446 C 936.814 298.92 938.715 299.144 940.971 299.103 C 949.017 298.936 957.085 298.858 965.127 298.858 C 973.168 298.858 981.241 298.858 989.283 298.858 C 997.325 298.858 1005.392 298.936 1013.439 299.103 C 1017.226 299.165 1020.502 298.769 1023.226 297.915 C 1023.392 297.853 1023.559 297.795 1023.721 297.712 C 1026.398 296.285 1028.221 293.952 1029.142 290.722 C 1029.59 289.186 1029.918 287.405 1030.106 285.379 C 1030.783 278.202 1031.497 270.962 1032.231 263.681 C 1032.991 256.358 1033.684 249.113 1034.34 241.957 C 1034.528 239.868 1034.934 238.108 1035.549 236.681 C 1038.293 241.978 1040.95 247.4 1043.554 252.941 C 1046.07 258.384 1048.611 263.785 1051.168 269.165 C 1052.538 272.03 1053.892 274.827 1055.262 277.551 C 1057.866 282.728 1060.403 287.92 1062.898 293.176 C 1065.497 298.639 1068.137 304.077 1070.819 309.478 C 1073.46 314.858 1076.023 320.321 1078.497 325.879 C 1079.747 328.728 1081.382 331.202 1083.392 333.285 C 1086.314 336.353 1090.986 337.785 1097.377 337.597 C 1103.517 337.415 1109.653 337.316 1115.799 337.316 C 1113.283 331.79 1110.684 326.327 1108.002 320.952 C 1105.34 315.571 1102.679 310.17 1099.997 304.707 C 1097.559 299.717 1095.101 294.686 1092.585 289.592 C 1089.986 284.254 1087.366 278.795 1084.747 273.249 C 1082.21 267.868 1079.668 262.452 1077.127 257.03 C 1074.528 251.483 1071.908 246.045 1069.241 240.702 C 1066.564 235.306 1063.924 229.863 1061.34 224.405 C 1061.898 222.91 1062.471 221.4 1063.023 219.905 C 1064.637 215.566 1066.288 211.295 1067.95 207.082 C 1070.262 201.207 1072.653 195.504 1075.127 189.983 C 1075.231 189.754 1075.314 189.514 1075.398 189.264 C 1076.314 186.691 1077.356 184.217 1078.543 181.868 C 1082.189 186.264 1085.825 190.665 1089.491 195.103 C 1091.314 197.332 1093.122 199.608 1094.882 201.92 C 1098.382 206.478 1103.585 209.228 1110.523 210.108 C 1112.549 210.374 1114.564 210.483 1116.611 210.483 C 1123.163 210.483 1130.127 210.551 1136.679 210.691" id="Path 1" fill="#000000" style="">
      <title>Body</title>
    </path>
    <ellipse style="fill: rgb(0, 0, 0);" cx="1136.7" cy="198.121" rx="12.592" ry="12.592">
      <title>Hand</title>
    </ellipse>
  </g>
</svg>